<svg width="30" height="30" viewBox="0 0 30 30" fill="none" xmlns="http://www.w3.org/2000/svg">
<path d="M27.5 9.05001C27.501 8.8855 27.4694 8.72242 27.4072 8.57012C27.345 8.41783 27.2534 8.27931 27.1375 8.16251L21.8375 2.86251C21.7207 2.74665 21.5822 2.655 21.4299 2.59279C21.2776 2.53059 21.1145 2.49905 20.95 2.50001C20.7855 2.49905 20.6224 2.53059 20.4701 2.59279C20.3178 2.655 20.1793 2.74665 20.0625 2.86251L16.525 6.40001L2.86252 20.0625C2.74667 20.1793 2.65501 20.3178 2.59281 20.4701C2.5306 20.6224 2.49907 20.7855 2.50002 20.95V26.25C2.50002 26.5815 2.63172 26.8995 2.86614 27.1339C3.10056 27.3683 3.4185 27.5 3.75002 27.5H9.05002C9.22493 27.5095 9.39989 27.4822 9.56355 27.4197C9.7272 27.3573 9.87591 27.2611 10 27.1375L23.5875 13.475L27.1375 10C27.2516 9.87886 27.3446 9.73942 27.4125 9.58751C27.4246 9.48787 27.4246 9.38714 27.4125 9.28751C27.4184 9.22932 27.4184 9.17069 27.4125 9.11251L27.5 9.05001ZM8.53752 25H5.00002V21.4625L17.4125 9.05001L20.95 12.5875L8.53752 25ZM22.7125 10.825L19.175 7.28751L20.95 5.52501L24.475 9.05001L22.7125 10.825Z" fill="#CADA32"/>
</svg>
