<svg width="40" height="40" viewBox="0 0 40 40" fill="none" xmlns="http://www.w3.org/2000/svg">
<path d="M35.5333 15.9167L32.3833 14.8667L33.8667 11.9C34.017 11.5895 34.0673 11.2399 34.0106 10.8996C33.9539 10.5593 33.793 10.245 33.55 9.99999L30 6.44999C29.7537 6.20346 29.4364 6.04033 29.0926 5.98353C28.7488 5.92673 28.3958 5.97911 28.0833 6.13332L25.1167 7.61665L24.0667 4.46665C23.9558 4.13831 23.7453 3.85269 23.4645 3.64957C23.1837 3.44644 22.8466 3.33589 22.5 3.33332H17.5C17.1506 3.33242 16.8097 3.44135 16.5256 3.64472C16.2415 3.84809 16.0285 4.13562 15.9167 4.46665L14.8667 7.61665L11.9 6.13332C11.5895 5.98295 11.2399 5.93266 10.8996 5.98938C10.5593 6.0461 10.245 6.20704 10 6.44999L6.45 9.99999C6.20348 10.2463 6.04034 10.5636 5.98354 10.9074C5.92674 11.2512 5.97913 11.6042 6.13333 11.9167L7.61667 14.8833L4.46667 15.9333C4.13832 16.0442 3.85271 16.2547 3.64958 16.5355C3.44645 16.8163 3.33591 17.1534 3.33333 17.5V22.5C3.33243 22.8494 3.44137 23.1902 3.64474 23.4744C3.84811 23.7585 4.13563 23.9715 4.46667 24.0833L7.61667 25.1333L6.13333 28.1C5.98297 28.4105 5.93267 28.76 5.98939 29.1004C6.04611 29.4407 6.20705 29.755 6.45 30L10 33.55C10.2463 33.7965 10.5636 33.9596 10.9074 34.0164C11.2512 34.0732 11.6042 34.0209 11.9167 33.8667L14.8833 32.3833L15.9333 35.5333C16.0451 35.8644 16.2582 36.1519 16.5423 36.3553C16.8264 36.5586 17.1673 36.6676 17.5167 36.6667H22.5167C22.8661 36.6676 23.2069 36.5586 23.491 36.3553C23.7752 36.1519 23.9882 35.8644 24.1 35.5333L25.15 32.3833L28.1167 33.8667C28.4252 34.0132 28.7713 34.0615 29.1082 34.0048C29.445 33.9482 29.7564 33.7894 30 33.55L33.55 30C33.7965 29.7537 33.9597 29.4364 34.0165 29.0926C34.0733 28.7488 34.0209 28.3958 33.8667 28.0833L32.3833 25.1167L35.5333 24.0667C35.8617 23.9558 36.1473 23.7453 36.3504 23.4645C36.5536 23.1837 36.6641 22.8465 36.6667 22.5V17.5C36.6676 17.1506 36.5586 16.8097 36.3553 16.5256C36.1519 16.2415 35.8644 16.0285 35.5333 15.9167ZM33.3333 21.3L31.3333 21.9667C30.8734 22.1158 30.4515 22.3633 30.0968 22.6918C29.742 23.0204 29.463 23.4221 29.2791 23.8693C29.0952 24.3164 29.0107 24.7982 29.0316 25.2813C29.0525 25.7643 29.1782 26.237 29.4 26.6667L30.35 28.5667L28.5167 30.4L26.6667 29.4C26.2393 29.187 25.7711 29.0684 25.2939 29.0521C24.8166 29.0359 24.3415 29.1223 23.9005 29.3056C23.4596 29.489 23.0632 29.7649 22.7382 30.1147C22.4132 30.4645 22.1671 30.8801 22.0167 31.3333L21.35 33.3333H18.7L18.0333 31.3333C17.8842 30.8734 17.6367 30.4515 17.3082 30.0967C16.9796 29.742 16.5778 29.463 16.1307 29.2791C15.6836 29.0952 15.2018 29.0107 14.7187 29.0316C14.2357 29.0525 13.7629 29.1782 13.3333 29.4L11.4333 30.35L9.6 28.5167L10.6 26.6667C10.8218 26.237 10.9475 25.7643 10.9684 25.2813C10.9893 24.7982 10.9048 24.3164 10.7209 23.8693C10.537 23.4221 10.258 23.0204 9.90324 22.6918C9.54852 22.3633 9.12657 22.1158 8.66667 21.9667L6.66667 21.3V18.7L8.66667 18.0333C9.12657 17.8841 9.54852 17.6367 9.90324 17.3082C10.258 16.9796 10.537 16.5778 10.7209 16.1307C10.9048 15.6835 10.9893 15.2017 10.9684 14.7187C10.9475 14.2356 10.8218 13.7629 10.6 13.3333L9.65 11.4833L11.4833 9.64999L13.3333 10.6C13.7629 10.8218 14.2357 10.9475 14.7187 10.9684C15.2018 10.9893 15.6836 10.9048 16.1307 10.7209C16.5778 10.537 16.9796 10.2579 17.3082 9.90323C17.6367 9.54851 17.8842 9.12656 18.0333 8.66665L18.7 6.66665H21.3L21.9667 8.66665C22.1158 9.12656 22.3633 9.54851 22.6918 9.90323C23.0204 10.2579 23.4222 10.537 23.8693 10.7209C24.3164 10.9048 24.7982 10.9893 25.2813 10.9684C25.7643 10.9475 26.2371 10.8218 26.6667 10.6L28.5667 9.64999L30.4 11.4833L29.4 13.3333C29.1871 13.7607 29.0684 14.2289 29.0522 14.7061C29.0359 15.1834 29.1223 15.6585 29.3057 16.0995C29.489 16.5404 29.7649 16.9368 30.1147 17.2618C30.4646 17.5868 30.8801 17.8329 31.3333 17.9833L33.3333 18.65V21.3ZM20 13.3333C18.6815 13.3333 17.3925 13.7243 16.2962 14.4569C15.1999 15.1894 14.3454 16.2306 13.8408 17.4488C13.3362 18.6669 13.2042 20.0074 13.4614 21.3006C13.7187 22.5938 14.3536 23.7817 15.286 24.714C16.2183 25.6464 17.4062 26.2813 18.6994 26.5386C19.9926 26.7958 21.333 26.6638 22.5512 26.1592C23.7694 25.6546 24.8106 24.8001 25.5431 23.7038C26.2757 22.6075 26.6667 21.3185 26.6667 20C26.6667 18.2319 25.9643 16.5362 24.714 15.2859C23.4638 14.0357 21.7681 13.3333 20 13.3333ZM20 23.3333C19.3407 23.3333 18.6963 23.1378 18.1481 22.7716C17.5999 22.4053 17.1727 21.8847 16.9204 21.2756C16.6681 20.6665 16.6021 19.9963 16.7307 19.3497C16.8593 18.7031 17.1768 18.1091 17.643 17.643C18.1092 17.1768 18.7031 16.8593 19.3497 16.7307C19.9963 16.6021 20.6665 16.6681 21.2756 16.9204C21.8847 17.1727 22.4053 17.5999 22.7716 18.1481C23.1378 18.6962 23.3333 19.3407 23.3333 20C23.3333 20.884 22.9821 21.7319 22.357 22.357C21.7319 22.9821 20.8841 23.3333 20 23.3333Z" fill="#CADA32"/>
</svg>
