<svg width="40" height="40" viewBox="0 0 40 40" fill="none" xmlns="http://www.w3.org/2000/svg">
<path d="M31.6667 6.66668H28.3333V5.00001C28.3333 4.55798 28.1578 4.13406 27.8452 3.8215C27.5326 3.50894 27.1087 3.33334 26.6667 3.33334C26.2247 3.33334 25.8007 3.50894 25.4882 3.8215C25.1756 4.13406 25 4.55798 25 5.00001V6.66668H15V5.00001C15 4.55798 14.8244 4.13406 14.5119 3.8215C14.1993 3.50894 13.7754 3.33334 13.3333 3.33334C12.8913 3.33334 12.4674 3.50894 12.1548 3.8215C11.8423 4.13406 11.6667 4.55798 11.6667 5.00001V6.66668H8.33334C7.00726 6.66668 5.73549 7.19346 4.79781 8.13114C3.86013 9.06883 3.33334 10.3406 3.33334 11.6667V31.6667C3.33334 32.9928 3.86013 34.2645 4.79781 35.2022C5.73549 36.1399 7.00726 36.6667 8.33334 36.6667H31.6667C32.9928 36.6667 34.2645 36.1399 35.2022 35.2022C36.1399 34.2645 36.6667 32.9928 36.6667 31.6667V11.6667C36.6667 10.3406 36.1399 9.06883 35.2022 8.13114C34.2645 7.19346 32.9928 6.66668 31.6667 6.66668ZM33.3333 31.6667C33.3333 32.1087 33.1578 32.5326 32.8452 32.8452C32.5326 33.1578 32.1087 33.3333 31.6667 33.3333H8.33334C7.89132 33.3333 7.46739 33.1578 7.15483 32.8452C6.84227 32.5326 6.66668 32.1087 6.66668 31.6667V20H33.3333V31.6667ZM33.3333 16.6667H6.66668V11.6667C6.66668 11.2246 6.84227 10.8007 7.15483 10.4882C7.46739 10.1756 7.89132 10 8.33334 10H11.6667V11.6667C11.6667 12.1087 11.8423 12.5326 12.1548 12.8452C12.4674 13.1577 12.8913 13.3333 13.3333 13.3333C13.7754 13.3333 14.1993 13.1577 14.5119 12.8452C14.8244 12.5326 15 12.1087 15 11.6667V10H25V11.6667C25 12.1087 25.1756 12.5326 25.4882 12.8452C25.8007 13.1577 26.2247 13.3333 26.6667 13.3333C27.1087 13.3333 27.5326 13.1577 27.8452 12.8452C28.1578 12.5326 28.3333 12.1087 28.3333 11.6667V10H31.6667C32.1087 10 32.5326 10.1756 32.8452 10.4882C33.1578 10.8007 33.3333 11.2246 33.3333 11.6667V16.6667Z" fill="#D7E365"/>
</svg>
