<svg width="40" height="40" viewBox="0 0 40 40" fill="none" xmlns="http://www.w3.org/2000/svg">
<path d="M31.6667 6.66666H8.33334C7.00726 6.66666 5.73549 7.19344 4.79781 8.13112C3.86013 9.0688 3.33334 10.3406 3.33334 11.6667V28.3333C3.33334 29.6594 3.86013 30.9312 4.79781 31.8689C5.73549 32.8065 7.00726 33.3333 8.33334 33.3333H31.6667C32.9928 33.3333 34.2645 32.8065 35.2022 31.8689C36.1399 30.9312 36.6667 29.6594 36.6667 28.3333V11.6667C36.6667 10.3406 36.1399 9.0688 35.2022 8.13112C34.2645 7.19344 32.9928 6.66666 31.6667 6.66666ZM30.9833 9.99999L21.1833 19.8C21.0284 19.9562 20.8441 20.0802 20.641 20.1648C20.4379 20.2494 20.22 20.293 20 20.293C19.78 20.293 19.5621 20.2494 19.359 20.1648C19.156 20.0802 18.9716 19.9562 18.8167 19.8L9.01668 9.99999H30.9833ZM33.3333 28.3333C33.3333 28.7753 33.1578 29.1993 32.8452 29.5118C32.5326 29.8244 32.1087 30 31.6667 30H8.33334C7.89132 30 7.46739 29.8244 7.15483 29.5118C6.84227 29.1993 6.66668 28.7753 6.66668 28.3333V12.35L16.4667 22.15C17.4042 23.0863 18.675 23.6123 20 23.6123C21.325 23.6123 22.5958 23.0863 23.5333 22.15L33.3333 12.35V28.3333Z" fill="#D7E365"/>
</svg>
