<svg width="50" height="50" viewBox="0 0 50 50" fill="none" xmlns="http://www.w3.org/2000/svg">
<path d="M23.5208 13.1042L13.1042 23.5208C12.9145 23.719 12.7658 23.9526 12.6667 24.2083C12.4583 24.7155 12.4583 25.2844 12.6667 25.7917C12.7658 26.0474 12.9145 26.281 13.1042 26.4792L23.5208 36.8958C23.7151 37.0901 23.9457 37.2442 24.1995 37.3493C24.4533 37.4544 24.7253 37.5085 25 37.5085C25.5548 37.5085 26.0869 37.2881 26.4792 36.8958C26.8715 36.5035 27.0918 35.9715 27.0918 35.4167C27.0918 34.8619 26.8715 34.3298 26.4792 33.9375L19.6042 27.0833H35.4167C35.9692 27.0833 36.4991 26.8638 36.8898 26.4731C37.2805 26.0824 37.5 25.5525 37.5 25C37.5 24.4475 37.2805 23.9176 36.8898 23.5269C36.4991 23.1362 35.9692 22.9167 35.4167 22.9167H19.6042L26.4792 16.0625C26.6744 15.8688 26.8294 15.6384 26.9352 15.3845C27.0409 15.1307 27.0954 14.8584 27.0954 14.5833C27.0954 14.3083 27.0409 14.036 26.9352 13.7821C26.8294 13.5282 26.6744 13.2978 26.4792 13.1042C26.2855 12.9089 26.0551 12.7539 25.8012 12.6481C25.5473 12.5424 25.275 12.4879 25 12.4879C24.725 12.4879 24.4527 12.5424 24.1988 12.6481C23.9449 12.7539 23.7145 12.9089 23.5208 13.1042Z" fill="#D7E365"/>
</svg>
