<svg width="40" height="40" viewBox="0 0 40 40" fill="none" xmlns="http://www.w3.org/2000/svg">
<path d="M35.5333 8.41668L25.5333 5.08334H25.4167C25.3391 5.07555 25.2609 5.07555 25.1833 5.08334H24.8H24.5833H24.4667L15 8.33334L5.53332 5.08334C5.28268 5.0007 5.01599 4.97875 4.75521 5.01932C4.49443 5.05988 4.24701 5.1618 4.03332 5.31668C3.81792 5.47004 3.64209 5.67245 3.52038 5.90719C3.39866 6.14193 3.33454 6.40226 3.33332 6.66668V30C3.33242 30.3494 3.44135 30.6903 3.64472 30.9744C3.84809 31.2585 4.13562 31.4715 4.46665 31.5833L14.4667 34.9167C14.8024 35.0262 15.1642 35.0262 15.5 34.9167L25 31.75L34.4667 35C34.6436 35.024 34.823 35.024 35 35C35.3485 35.0049 35.6886 34.8935 35.9667 34.6833C36.1821 34.53 36.3579 34.3276 36.4796 34.0928C36.6013 33.8581 36.6654 33.5978 36.6667 33.3333V10C36.6676 9.6506 36.5586 9.30975 36.3553 9.02563C36.1519 8.74151 35.8644 8.52849 35.5333 8.41668ZM13.3333 31.0167L6.66665 28.8V8.98334L13.3333 11.2V31.0167ZM23.3333 28.8L16.6667 31.0167V11.2L23.3333 8.98334V28.8ZM33.3333 31.0167L26.6667 28.8V8.98334L33.3333 11.2V31.0167Z" fill="#D7E365"/>
</svg>
